<?xml version="1.0" encoding="utf-8"?>
<!-- Generator: Adobe Illustrator 24.2.2, SVG Export Plug-In . SVG Version: 6.00 Build 0)  -->
<svg version="1.1" id="Layer_1" xmlns="http://www.w3.org/2000/svg" xmlns:xlink="http://www.w3.org/1999/xlink" x="0px" y="0px"
	 viewBox="0 0 500 500" style="enable-background:new 0 0 500 500;" xml:space="preserve">
<style type="text/css">
	.st0{fill:#020203;}
</style>
<g>
	<g>
		<g>
			<path class="st0" d="M360.73,134.5c-5.45,3.64-10.91,7.27-16.36,10.91c1.93-0.25,3.85-0.5,5.78-0.76
				c-10.92-2.18-22.1-3.73-32.67-7.25c-3.43-1.14-6.86-2.52-10.36-3.45c-2.76-0.74-5.01-0.1-7.65,0.56
				c-6.25,1.56-12.51,3.13-18.76,4.69c1.33,0,2.66,0,3.99,0c-5.45-1.82-10.91-3.64-16.36-5.45c1.49,3.67,2.99,7.34,4.48,11.02
				c3.64-7.27,7.27-14.54,10.91-21.82c-2.16,1.24-4.32,2.48-6.48,3.71c3.97,0,7.93,0,11.9,0c4.45,0,9.55,0.73,13.73-1.04
				c7.28-3.08,14.28-7.14,21.35-10.68c-2.52,0-5.05,0-7.57,0c15.97,8.01,30.18,18.44,42.55,31.33c6.7,6.98,17.29-3.64,10.61-10.61
				c-7.2-7.51-15.06-14.3-23.51-20.38c-4.18-3.01-8.52-5.82-12.98-8.41c-4.53-2.63-10.4-7.22-15.78-5.26
				c-7.66,2.78-14.98,7.42-22.28,11.07c1.26-0.34,2.52-0.68,3.79-1.02c-7.27,0-14.54,0-21.82,0c-2.51,0-5.32,1.4-6.48,3.71
				c-3.64,7.27-7.27,14.54-10.91,21.82c-2.24,4.48-0.32,9.42,4.48,11.02c3.65,1.22,7.31,2.44,10.96,3.65
				c3.41,1.14,6.19,2.42,9.87,1.68c7.16-1.44,14.25-3.56,21.34-5.33c-1.33,0-2.66,0-3.99,0c5.4,1.8,10.79,3.96,16.29,5.43
				c5.57,1.49,11.42,2.29,17.08,3.43c5.4,1.08,12.03,3.66,17.04,0.63c5.25-3.18,10.25-6.84,15.36-10.24
				C376.3,142.12,368.8,129.12,360.73,134.5z"/>
		</g>
	</g>
	<g>
		<g>
			<path class="st0" d="M231.85,117.17c-1.82,5.45-3.64,10.91-5.45,16.36c1.75-1.75,3.49-3.49,5.24-5.24
				c-7,2.33-17.55,3.7-21.67,10.27c-5.02,8.01-10.32,16.16-14.72,24.53c-0.2,0.37-0.64,0.82-0.74,1.23
				c-0.26,1.14,3.99-2.75,2.3-2.37c-1.29,0.29-2.83,1.7-3.95,2.37c-4.79,2.88-9.59,5.75-14.38,8.63c-1.86,1.11-3.71,2.23-5.57,3.34
				c-0.68,0.41-1.41,0.78-2.06,1.24c-0.92,0.64-1.27,0.23-0.1,0.21c1.98-0.03-0.84-0.12-1.58-0.02c-2.09,0.3-4.18,0.6-6.28,0.9
				c-9.81,1.4-19.62,2.8-29.43,4.2c-3.2,0.46-5.51,4.25-5.51,7.23c0,2.89,0,5.78,0,8.67c0,3.02-0.56,6.72,0.27,9.68
				c0.9,3.21,4.44,5.82,6.7,8.08c2.04,2.04,4.09,4.09,6.13,6.13c-0.73-1.77-1.46-3.54-2.2-5.3c0,7.27,0,14.54,0,21.82
				c3.76-2.16,7.52-4.32,11.29-6.48c-10.91-7.27-21.81-14.54-32.72-21.82c1.15,1.49,2.3,2.99,3.45,4.48
				c-3.16-9.51-6.33-19.02-9.49-28.52c-0.25,1.93-0.5,3.85-0.76,5.78c15.68-36.87,44.99-66.81,82.23-82.02
				c-1.93-0.25-3.85-0.5-5.78-0.76c6.63,4.43,13.02,10.41,21.01,11.74c9.66,1.61,19.33,3.22,28.99,4.83
				c9.44,1.57,13.5-12.88,3.99-14.46c-6.11-1.02-12.21-2.04-18.32-3.05c-3.77-0.63-7.53-1.26-11.3-1.88
				c-0.31-0.05-2.45-0.68-2.76-0.46c0.15-0.11,2.24,1.37,0.15-0.17c-3.34-2.48-6.95-4.65-10.41-6.97
				c-3.92-2.62-6.67-4.49-11.67-2.41c-12.7,5.29-24.73,11.96-35.73,20.25c-21.86,16.47-39.74,37.99-51.2,62.91
				c-1.98,4.31-3.73,7.82-2.31,12.44c1.05,3.41,2.26,6.78,3.38,10.17c1.3,3.92,2.61,7.84,3.91,11.77c0.87,2.61,1.57,6.11,3.53,8.12
				c2.39,2.45,6.08,4.21,8.88,6.08c2.98,1.99,5.96,3.98,8.94,5.96c5.47,3.65,10.94,7.3,16.41,10.94c4.82,3.21,11.29-1.05,11.29-6.48
				c0-7.08,0.33-14.24,0-21.31c-0.31-6.69-8.69-12.3-13.1-16.72c0.73,1.77,1.46,3.54,2.2,5.3c0-5.45,0-10.91,0-16.36
				c-1.84,2.41-3.67,4.82-5.51,7.23c6.86-0.98,13.71-1.96,20.57-2.94c4.46-0.64,8.92-1.27,13.38-1.91c2.19-0.31,4.16-0.42,6.16-1.44
				c7.14-3.67,13.92-8.35,20.81-12.48c2.08-1.25,4.36-2.37,6.32-3.79c2.63-1.91,4-4.88,5.64-7.61c4.47-7.45,8.94-14.9,13.41-22.35
				c-1.49,1.15-2.99,2.3-4.48,3.45c3.04-1.01,6.08-2.03,9.12-3.04c3.16-1.05,8.11-1.9,10.55-4.34c2.43-2.43,3.3-7.41,4.34-10.55
				c1.01-3.04,2.03-6.08,3.04-9.12C249.37,111.97,234.89,108.04,231.85,117.17z"/>
		</g>
	</g>
	<g>
		<g>
			<path class="st0" d="M242.76,269.87c-1.4,7.02-2.81,14.03-4.21,21.05c-0.31,1.55-0.78,3.14-0.94,4.71
				c-0.03,0.32-0.36,1.02-0.27,1.33c0.34,1.12,3.15-3.88,1.64-2.87c-2.28,1.51-4.31,4.31-6.24,6.24
				c-5.02,5.02-10.77,9.81-15.29,15.29c-4.23,5.13-2.23,15.42-2.23,21.69c1.24-2.16,2.48-4.32,3.71-6.48
				c-3.9,2.93-7.8,5.85-11.7,8.78c-3.73,2.8-10.33,6.14-12.8,10.27c-2.39,3.99-1.02,11.56-1.02,15.93c0,5.04,0,10.09,0,15.13
				c3.16-2.41,6.33-4.82,9.49-7.23c-5.45-1.82-10.91-3.64-16.36-5.45c1.75,1.75,3.49,3.49,5.24,5.24c-2.9-7.25-5.8-14.5-8.7-21.76
				c-0.59-1.48-1.05-3.18-1.83-4.58c-0.93-1.67,0.18,0.29-0.11,0.85c0.78-1.53,0-5.54,0-7.21c0-15.7,0-31.41,0-47.11
				c0-3.1-2.31-6.59-5.51-7.23c-9.09-1.82-18.18-3.64-27.27-5.45c1.49,1.15,2.99,2.3,4.48,3.45c-3.64-7.27-7.27-14.54-10.91-21.82
				c0.34,1.26,0.68,2.52,1.02,3.79c0-5.45,0-10.91,0-16.36c-0.73,1.77-1.46,3.54-2.2,5.3c9.09-9.09,18.18-18.18,27.27-27.27
				c-3.93-0.51-7.85-1.01-11.78-1.52c3.64,7.27,7.27,14.54,10.91,21.82c1.16,2.32,3.97,3.71,6.48,3.71c12.73,0,25.45,0,38.18,0
				c-2.16-1.24-4.32-2.48-6.48-3.71c5.25,8.75,10.29,17.66,15.76,26.27c3.29,5.17,7.81,4.71,13.18,4.71c5.24,0,10.47,0,15.71,0
				c9.65,0,9.67-15,0-15c-7.27,0-14.54,0-21.82,0c2.16,1.24,4.32,2.48,6.48,3.71c-3.4-5.67-6.8-11.34-10.21-17.01
				c-3.05-5.09-6.16-13.59-12.93-13.97c-12.54-0.71-25.31,0-37.88,0c2.16,1.24,4.32,2.48,6.48,3.71
				c-3.64-7.27-7.27-14.54-10.91-21.82c-2.19-4.37-8.55-4.75-11.78-1.52c-5.42,5.42-10.84,10.84-16.26,16.26
				c-5.08,5.08-13.04,10.35-13.2,18.01c-0.09,4.57-0.18,9.21,0,13.77c0.14,3.5,1.81,6.25,3.34,9.31c2.27,4.53,4.53,9.06,6.8,13.6
				c1.68,3.35,2.95,6.05,6.97,7.17c8.63,2.39,17.79,3.56,26.57,5.31c-1.84-2.41-3.67-4.82-5.51-7.23c0,15.34,0,30.68,0,46.01
				c0,4.91-0.31,9.08,1.52,13.66c3.09,7.73,6.15,15.48,9.28,23.2c1.89,4.67,4.92,5.94,9.31,7.4c4.22,1.41,8.44,2.81,12.67,4.22
				c4.67,1.56,9.49-2.57,9.49-7.23c0-9.09,0-18.18,0-27.27c-1.24,2.16-2.48,4.32-3.71,6.48c6.85-5.14,13.71-10.26,20.55-15.41
				c3.87-2.92,4.98-5.88,4.98-10.55c0-4.41,0-8.82,0-13.23c-0.73,1.77-1.46,3.54-2.2,5.3c7.21-7.21,15.01-14.1,21.74-21.74
				c3.29-3.73,3.41-10.42,4.34-15.07c1.04-5.19,2.08-10.38,3.12-15.58C259.11,264.43,244.65,260.4,242.76,269.87z"/>
		</g>
	</g>
	<g>
		<g>
			<path class="st0" d="M381.49,176.56c28.13,50.8,24.44,113.28-8.73,160.79c3.93-0.51,7.85-1.01,11.78-1.52
				c-4.91-4.91-9.82-9.82-14.73-14.73c0.73,1.77,1.46,3.54,2.2,5.3c0-6.64,0.1-13.28,0-19.91c-0.09-6.21-4.2-12.03-6.92-17.48
				c-5.31-10.61-10.61-21.23-15.92-31.84c0.34,1.26,0.68,2.52,1.02,3.79c0-6.43,0-12.86,0-19.29c0-3.75-0.56-6.74-3.92-9.14
				c-2.59-1.85-5.32-3.55-7.97-5.31c-2.62-1.75-5.21-3.8-7.97-5.31c-3.16-1.73-5.89-0.92-9.04-0.13
				c-6.25,1.56-12.51,3.13-18.76,4.69c1.93,0.25,3.85,0.5,5.78,0.76c-12.73-5.45-25.45-10.91-38.18-16.36
				c1.15,1.49,2.3,2.99,3.45,4.48c-1.82-12.73-3.64-25.45-5.45-38.18c-0.64,2.43-1.29,4.86-1.93,7.3
				c5.45-5.45,10.91-10.91,16.36-16.36c-1.77,0.73-3.54,1.46-5.3,2.2c10.91,0,21.82,0,32.72,0c-2.16-1.24-4.32-2.48-6.48-3.71
				c3.56,5.34,6.98,10.8,10.69,16.03c3.8,5.36,12.19,5.03,18.13,6.02c6.42,1.07,12.83,2.25,19.27,3.21
				c6.18,0.93,13.7-3.23,19.42-5.14c6.8-2.26,14.46-3.9,20.73-7.45c8.4-4.76,0.85-17.72-7.57-12.95c-2.71,1.54,1.46-0.18-0.69,0.45
				c-1.2,0.35-2.39,0.8-3.57,1.19c-3.66,1.22-7.33,2.44-10.99,3.66c-5.77,1.92-11.54,3.85-17.3,5.77c1.33,0,2.66,0,3.99,0
				c-10.91-1.82-21.82-3.64-32.72-5.45c1.49,1.15,2.99,2.3,4.48,3.45c-3.58-5.38-7.02-10.89-10.77-16.15
				c-4.15-5.83-13.73-3.92-20.05-3.92c-6.38,0-12.93-0.44-19.29,0c-4.12,0.29-6.44,3.33-9.14,6.03c-3.1,3.1-6.19,6.19-9.29,9.29
				c-3.16,3.16-5.88,5.46-5.17,10.54c0.26,1.87,0.53,3.73,0.8,5.6c1.21,8.49,2.43,16.98,3.64,25.46c0.78,5.45,0.86,10.05,6.58,12.5
				c7.31,3.13,14.61,6.26,21.92,9.4c5.36,2.3,14.11,7.95,20.14,6.76c7.25-1.43,14.43-3.61,21.6-5.4c-1.93-0.25-3.85-0.5-5.78-0.76
				c5.45,3.64,10.91,7.27,16.36,10.91c-1.24-2.16-2.48-4.32-3.71-6.48c0,6.64-0.1,13.28,0,19.91c0.09,6.21,4.2,12.03,6.92,17.48
				c5.31,10.61,10.61,21.23,15.92,31.84c-0.34-1.26-0.68-2.52-1.02-3.79c0,3.8,0,7.6,0,11.4c0,3.83-0.81,8.65,0.27,12.41
				c1.08,3.76,5.62,7,8.26,9.64c2.8,2.8,5.6,5.6,8.39,8.39c3.64,3.64,9.05,2.39,11.78-1.52c36.19-51.85,39.3-120.73,8.73-175.93
				C389.77,160.54,376.81,168.1,381.49,176.56z"/>
		</g>
	</g>
</g>
<g>
	<g>
		<path class="st0" d="M284.71,153.66c7.27-1.82,14.54-3.64,21.82-5.45c-1.33,0-2.66,0-3.99,0c5.4,1.8,10.79,3.96,16.29,5.43
			c5.57,1.49,11.42,2.29,17.08,3.43c5.4,1.08,12.03,3.66,17.04,0.63c5.25-3.18,10.25-6.84,15.36-10.24
			c-3.03-0.39-6.06-0.78-9.09-1.17c8.68,9.19,16.07,19.27,22.28,30.28c0.9-3.42,1.79-6.84,2.69-10.26
			c-2.71,1.54,1.46-0.18-0.69,0.45c-1.2,0.35-2.39,0.8-3.57,1.19c-3.66,1.22-7.33,2.44-10.99,3.66c-5.77,1.92-11.54,3.85-17.3,5.77
			c1.33,0,2.66,0,3.99,0c-10.91-1.82-21.82-3.64-32.72-5.45c1.49,1.15,2.99,2.3,4.48,3.45c-3.58-5.38-7.02-10.89-10.77-16.15
			c-4.15-5.83-13.73-3.92-20.05-3.92c-6.38,0-12.93-0.44-19.29,0c-4.12,0.29-6.44,3.33-9.14,6.03c-3.1,3.1-6.19,6.19-9.29,9.29
			c-3.16,3.16-5.88,5.46-5.17,10.54c0.26,1.87,0.53,3.73,0.8,5.6c1.21,8.49,2.43,16.98,3.64,25.46c0.78,5.45,0.86,10.05,6.58,12.5
			c7.31,3.13,14.61,6.26,21.92,9.4c5.36,2.3,14.11,7.95,20.14,6.76c7.25-1.43,14.43-3.61,21.6-5.4c-1.93-0.25-3.85-0.5-5.78-0.76
			c5.45,3.64,10.91,7.27,16.36,10.91c-1.24-2.16-2.48-4.32-3.71-6.48c0,6.64-0.1,13.28,0,19.91c0.09,6.21,4.2,12.03,6.92,17.48
			c5.31,10.61,10.61,21.23,15.92,31.84c-0.34-1.26-0.68-2.52-1.02-3.79c0,3.8,0,7.6,0,11.4c0,3.83-0.81,8.65,0.27,12.41
			c1.08,3.76,5.62,7,8.26,9.64c2.8,2.8,5.6,5.6,8.39,8.39c-0.39-3.03-0.78-6.06-1.17-9.09c-32.55,45.69-89.98,70.38-145.57,61.59
			c-58.53-9.25-107.33-52.71-122.71-110.04c-8.75-32.61-5.98-66.98,6.89-98.1c-4.82,0-9.64,0-14.46,0
			c1.99,5.98,3.98,11.96,5.97,17.94c2,6,2.98,12.31,8.42,16.03c10.34,7.06,20.85,13.9,31.27,20.84c-0.51-3.93-1.01-7.85-1.52-11.78
			c-2.04,2.04-4.09,4.09-6.13,6.13c-2.61,2.61-6.21,5.26-6.84,9.08c-0.49,2.96-0.13,6.18-0.13,9.18c0,3.16-0.58,7.06,0.27,10.17
			c0.67,2.46,2.32,4.93,3.45,7.19c1.9,3.8,3.8,7.6,5.7,11.4c1.22,2.44,2.22,5.4,4.44,7.12c2.2,1.7,5.3,1.89,7.96,2.42
			c7.29,1.46,14.58,2.92,21.86,4.37c-1.84-2.41-3.67-4.82-5.51-7.23c0,15.34,0,30.68,0,46.01c0,4.91-0.31,9.08,1.52,13.66
			c3.09,7.73,6.15,15.48,9.28,23.2c1.89,4.67,4.92,5.94,9.31,7.4c4.22,1.41,8.45,2.81,12.67,4.22c4.67,1.56,9.49-2.57,9.49-7.23
			c0-9.09,0-18.18,0-27.27c-1.24,2.16-2.48,4.32-3.71,6.48c6.85-5.14,13.71-10.26,20.55-15.41c3.87-2.92,4.98-5.88,4.98-10.55
			c0-4.41,0-8.82,0-13.23c-0.73,1.77-1.46,3.54-2.2,5.3c7.21-7.21,15.01-14.1,21.74-21.74c3.29-3.73,3.41-10.42,4.34-15.07
			c1.04-5.19,2.08-10.38,3.12-15.58c0.94-4.72-2.08-9.49-7.23-9.49c-7.27,0-14.54,0-21.82,0c2.16,1.24,4.32,2.48,6.48,3.71
			c-3.4-5.67-6.8-11.34-10.21-17.01c-3.05-5.09-6.16-13.59-12.93-13.97c-12.54-0.71-25.31,0-37.88,0c2.16,1.24,4.32,2.48,6.48,3.71
			c-3.64-7.27-7.27-14.54-10.91-21.82c-2.19-4.37-8.55-4.75-11.78-1.52c-5.45,5.45-10.91,10.91-16.36,16.36
			c4.27,1.77,8.54,3.54,12.8,5.3c0-7.08,0.33-14.24,0-21.31c-0.31-6.69-8.69-12.3-13.1-16.72c0.73,1.77,1.46,3.54,2.2,5.3
			c0-5.45,0-10.91,0-16.36c-1.84,2.41-3.67,4.82-5.51,7.23c6.86-0.98,13.71-1.96,20.57-2.94c4.46-0.64,8.92-1.27,13.38-1.91
			c2.19-0.31,4.16-0.42,6.16-1.44c7.14-3.67,13.92-8.35,20.81-12.48c2.08-1.25,4.36-2.37,6.32-3.79c2.63-1.91,4-4.88,5.64-7.61
			c4.47-7.45,8.94-14.9,13.41-22.35c-1.49,1.15-2.99,2.3-4.48,3.45c3.04-1.01,6.08-2.03,9.12-3.04c3.16-1.05,8.11-1.9,10.55-4.34
			c2.43-2.43,3.3-7.41,4.34-10.55c1.01-3.04,2.03-6.08,3.04-9.12c1.19-3.56-1.38-8.58-5.24-9.23c-9.44-1.57-18.88-3.15-28.32-4.72
			c-1.03-0.17-3.23-1.01-4.25-0.71c0.33-0.1,2.16,1.39,0.96,0.28c-0.76-0.71-1.89-1.26-2.74-1.84c-4.02-2.69-8.04-5.38-12.07-8.07
			c-0.6,4.57-1.19,9.14-1.79,13.71c40.08-15.88,84.99-14.68,123.8,4.37c0-4.32,0-8.63,0-12.95c-7.13,3.56-14.25,7.13-21.38,10.69
			c1.26-0.34,2.52-0.68,3.79-1.02c-7.27,0-14.54,0-21.82,0c-2.51,0-5.32,1.4-6.48,3.71c-3.64,7.27-7.27,14.54-10.91,21.82
			c-2.24,4.48-0.32,9.42,4.48,11.02c5.45,1.82,10.91,3.64,16.36,5.45c9.18,3.06,13.11-11.42,3.99-14.46
			c-5.45-1.82-10.91-3.64-16.36-5.45c1.49,3.67,2.99,7.35,4.48,11.02c3.64-7.27,7.27-14.54,10.91-21.82
			c-2.16,1.24-4.32,2.48-6.48,3.71c3.97,0,7.93,0,11.9,0c4.45,0,9.55,0.73,13.73-1.04c7.28-3.08,14.28-7.14,21.36-10.68
			c4.87-2.43,4.92-10.53,0-12.95c-42.24-20.74-91.5-23.27-135.36-5.88c-6.03,2.39-7.46,9.92-1.79,13.71
			c6.63,4.43,13.02,10.41,21.01,11.74c9.66,1.61,19.33,3.22,28.99,4.83c-1.75-3.08-3.49-6.15-5.24-9.23
			c-1.82,5.45-3.64,10.91-5.45,16.36c1.75-1.75,3.49-3.49,5.24-5.24c-7,2.33-17.55,3.7-21.67,10.27
			c-5.02,8.01-10.32,16.16-14.72,24.53c-0.2,0.37-0.64,0.82-0.74,1.23c-0.26,1.14,3.99-2.75,2.3-2.37c-1.29,0.29-2.83,1.7-3.95,2.37
			c-4.79,2.88-9.59,5.75-14.38,8.63c-1.86,1.11-3.71,2.23-5.57,3.34c-0.68,0.41-1.41,0.78-2.06,1.24c-0.92,0.64-1.27,0.23-0.1,0.21
			c1.98-0.03-0.84-0.12-1.58-0.02c-2.09,0.3-4.18,0.6-6.28,0.9c-9.81,1.4-19.62,2.8-29.43,4.2c-3.2,0.46-5.51,4.25-5.51,7.23
			c0,2.89,0,5.78,0,8.67c0,3.02-0.56,6.72,0.27,9.68c0.9,3.21,4.44,5.82,6.7,8.08c2.04,2.04,4.09,4.09,6.13,6.13
			c-0.73-1.77-1.46-3.54-2.2-5.3c0,7.27,0,14.54,0,21.82c0,6.49,8.21,9.9,12.8,5.3c5.45-5.45,10.91-10.91,16.36-16.36
			c-3.93-0.51-7.85-1.01-11.78-1.52c3.64,7.27,7.27,14.54,10.91,21.82c1.16,2.32,3.97,3.71,6.48,3.71c12.73,0,25.45,0,38.18,0
			c-2.16-1.24-4.32-2.48-6.48-3.71c5.25,8.75,10.29,17.66,15.76,26.27c3.29,5.17,7.81,4.71,13.18,4.71c5.24,0,10.47,0,15.71,0
			c-2.41-3.16-4.82-6.33-7.23-9.49c-1.4,7.02-2.81,14.03-4.21,21.05c-0.31,1.55-0.78,3.14-0.94,4.71c-0.03,0.32-0.36,1.02-0.27,1.33
			c0.34,1.12,3.15-3.88,1.64-2.87c-2.28,1.51-4.31,4.31-6.24,6.24c-5.02,5.02-10.77,9.81-15.29,15.29
			c-4.23,5.13-2.23,15.42-2.23,21.69c1.24-2.16,2.48-4.32,3.71-6.48c-3.9,2.93-7.8,5.85-11.7,8.78c-3.73,2.8-10.33,6.14-12.8,10.27
			c-2.39,3.99-1.02,11.56-1.02,15.93c0,5.04,0,10.09,0,15.13c3.16-2.41,6.33-4.82,9.49-7.23c-5.45-1.82-10.91-3.64-16.36-5.45
			c1.75,1.75,3.49,3.49,5.24,5.24c-2.9-7.25-5.8-14.5-8.7-21.76c-0.59-1.48-1.05-3.18-1.83-4.58c-0.93-1.67,0.18,0.29-0.11,0.85
			c0.78-1.53,0-5.54,0-7.21c0-15.7,0-31.41,0-47.11c0-3.1-2.31-6.59-5.51-7.23c-9.09-1.82-18.18-3.64-27.27-5.45
			c1.49,1.15,2.99,2.3,4.48,3.45c-3.64-7.27-7.27-14.54-10.91-21.82c0.34,1.26,0.68,2.52,1.02,3.79c0-5.45,0-10.91,0-16.36
			c-0.73,1.77-1.46,3.54-2.2,5.3c3.64-3.64,7.27-7.27,10.91-10.91c3.58-3.58,2.46-9.13-1.52-11.78
			c-10.91-7.27-21.82-14.54-32.72-21.81c1.15,1.49,2.3,2.99,3.45,4.48c-3.16-9.51-6.33-19.02-9.49-28.52
			c-2.49-7.49-11.7-6.69-14.46,0c-24.99,60.41-11.21,131.87,34.41,178.71c44.08,45.25,112.18,61.72,171.99,41.27
			c33.42-11.43,61.94-33.16,82.39-61.87c1.91-2.67,1.03-6.89-1.17-9.09c-4.91-4.91-9.82-9.82-14.73-14.73
			c0.73,1.77,1.46,3.54,2.2,5.3c0-6.64,0.1-13.28,0-19.91c-0.09-6.21-4.2-12.03-6.92-17.48c-5.31-10.61-10.61-21.23-15.92-31.84
			c0.34,1.26,0.68,2.52,1.02,3.79c0-6.43,0-12.86,0-19.29c0-3.75-0.56-6.74-3.92-9.14c-2.59-1.85-5.32-3.55-7.97-5.31
			c-2.62-1.75-5.2-3.8-7.97-5.31c-3.16-1.73-5.89-0.92-9.04-0.13c-6.25,1.56-12.51,3.13-18.76,4.69c1.93,0.25,3.85,0.5,5.78,0.76
			c-12.73-5.45-25.45-10.91-38.18-16.36c1.15,1.49,2.3,2.99,3.45,4.48c-1.82-12.73-3.64-25.45-5.45-38.18
			c-0.64,2.43-1.29,4.86-1.93,7.3c5.45-5.45,10.91-10.91,16.36-16.36c-1.77,0.73-3.54,1.46-5.3,2.2c10.91,0,21.82,0,32.72,0
			c-2.16-1.24-4.32-2.48-6.48-3.71c3.56,5.34,6.98,10.8,10.69,16.03c3.8,5.36,12.19,5.03,18.13,6.02
			c6.42,1.07,12.83,2.25,19.27,3.21c6.18,0.93,13.7-3.23,19.42-5.14c6.79-2.26,14.46-3.9,20.73-7.45c3.56-2.02,4.66-6.76,2.69-10.26
			c-6.81-12.07-15.1-23.24-24.62-33.31c-2.16-2.29-6.4-2.96-9.09-1.17c-5.45,3.64-10.91,7.27-16.36,10.91
			c1.93-0.25,3.85-0.5,5.78-0.76c-10.92-2.18-22.1-3.73-32.67-7.25c-3.43-1.14-6.86-2.52-10.36-3.45c-2.76-0.74-5.01-0.1-7.65,0.56
			c-6.25,1.56-12.51,3.13-18.76,4.69C271.36,141.54,275.32,156.01,284.71,153.66z"/>
	</g>
</g>
</svg>
