<?xml version="1.0" encoding="utf-8"?>
<!-- Generator: Adobe Illustrator 24.2.2, SVG Export Plug-In . SVG Version: 6.00 Build 0)  -->
<svg version="1.1" id="Layer_1" xmlns="http://www.w3.org/2000/svg" xmlns:xlink="http://www.w3.org/1999/xlink" x="0px" y="0px"
	 viewBox="0 0 500 500" style="enable-background:new 0 0 500 500;" xml:space="preserve">
<style type="text/css">
	.st0{fill:#020203;}
</style>
<path class="st0" d="M185.63,274.05c-29.29,0-58.58,0-87.87,0c-4.22,0-8.43,0-12.65,0c2.5,2.5,5,5,7.5,7.5c0-24.56,0-49.11,0-73.67
	c-2.5,2.5-5,5-7.5,7.5c29.29,0,58.58,0,87.87,0c4.22,0,8.43,0,12.65,0c-2.5-2.5-5-5-7.5-7.5c0,24.56,0,49.11,0,73.67
	c0,9.65,15,9.67,15,0c0-24.56,0-49.11,0-73.67c0-4.05-3.44-7.5-7.5-7.5c-29.29,0-58.58,0-87.87,0c-4.22,0-8.43,0-12.65,0
	c-4.05,0-7.5,3.44-7.5,7.5c0,24.56,0,49.11,0,73.67c0,4.05,3.44,7.5,7.5,7.5c29.29,0,58.58,0,87.87,0c4.22,0,8.43,0,12.65,0
	C195.28,289.05,195.3,274.05,185.63,274.05z"/>
<path class="st0" d="M314.37,290.25c-37.52,0-75.05,0-112.57,0c-5.39,0-10.78,0-16.17,0c2.5,2.5,5,5,7.5,7.5
	c0-27.49,0-54.98,0-82.48c0-3.96,0-7.91,0-11.87c-2.5,2.5-5,5-7.5,7.5c37.52,0,75.05,0,112.57,0c5.39,0,10.78,0,16.17,0
	c-2.5-2.5-5-5-7.5-7.5c0,27.49,0,54.98,0,82.48c0,3.96,0,7.91,0,11.87c0,9.65,15,9.67,15,0c0-27.49,0-54.98,0-82.48
	c0-3.96,0-7.91,0-11.87c0-4.05-3.44-7.5-7.5-7.5c-37.52,0-75.05,0-112.57,0c-5.39,0-10.78,0-16.17,0c-4.05,0-7.5,3.44-7.5,7.5
	c0,27.49,0,54.98,0,82.48c0,3.96,0,7.91,0,11.87c0,4.05,3.44,7.5,7.5,7.5c37.52,0,75.05,0,112.57,0c5.39,0,10.78,0,16.17,0
	C324.02,305.25,324.04,290.25,314.37,290.25z"/>
<path class="st0" d="M414.89,274.05c-29.29,0-58.58,0-87.87,0c-4.22,0-8.43,0-12.65,0c2.5,2.5,5,5,7.5,7.5c0-24.56,0-49.11,0-73.67
	c-2.5,2.5-5,5-7.5,7.5c29.29,0,58.58,0,87.87,0c4.22,0,8.43,0,12.65,0c-2.5-2.5-5-5-7.5-7.5c0,24.56,0,49.11,0,73.67
	c0,9.65,15,9.67,15,0c0-24.56,0-49.11,0-73.67c0-4.05-3.44-7.5-7.5-7.5c-29.29,0-58.58,0-87.87,0c-4.22,0-8.43,0-12.65,0
	c-4.05,0-7.5,3.44-7.5,7.5c0,24.56,0,49.11,0,73.67c0,4.05,3.44,7.5,7.5,7.5c29.29,0,58.58,0,87.87,0c4.22,0,8.43,0,12.65,0
	C424.54,289.05,424.56,274.05,414.89,274.05z"/>
<path class="st0" d="M87.03,254.07c14.37,4.64,30.09,6.39,45.06,7.38c31.78,2.1,63.15-2.68,94.12-9.44
	c18.16-3.96,32.85-7.66,51.24-6.76c14.65,0.72,29.23,2.62,43.65,5.25c12.26,2.24,24.42,5.05,36.8,6.65
	c14.05,1.82,27.81,0.56,41.82-1.12c5.4-0.65,12.01-0.71,17.17-2.78c3.74-1.5,6.42-5.01,5.24-9.23c-1-3.56-5.43-6.76-9.23-5.24
	c-3.15,1.27-7.23,1.48-10.36,1.9c-12.49,1.66-25.22,3.19-37.83,2.19c-11.25-0.89-22.3-3.52-33.35-5.66
	c-15.01-2.91-30.14-5.15-45.39-6.4c-9.48-0.78-19.05-1.2-28.53-0.19c-8.45,0.9-16.71,2.73-24.98,4.62
	c-29.15,6.65-58.54,12.29-88.57,11.7c-17.54-0.34-36.04-1.92-52.87-7.35C81.81,236.64,77.87,251.12,87.03,254.07L87.03,254.07z"/>
<g>
	<path d="M129.07,175.32v-16c-2.98,2.29-4.98,3.43-6.01,3.43c-0.49,0-0.93-0.2-1.31-0.59s-0.57-0.85-0.57-1.36
		c0-0.6,0.19-1.04,0.56-1.32s1.04-0.64,1.99-1.09c1.42-0.67,2.55-1.37,3.4-2.11s1.6-1.56,2.26-2.48s1.08-1.48,1.28-1.69
		s0.57-0.32,1.12-0.32c0.62,0,1.12,0.24,1.49,0.72s0.56,1.14,0.56,1.99v20.13c0,2.36-0.8,3.53-2.41,3.53
		c-0.71,0-1.29-0.24-1.72-0.72S129.07,176.26,129.07,175.32z"/>
	<path d="M247.34,173.58h9.18c0.91,0,1.61,0.19,2.09,0.56s0.72,0.88,0.72,1.53c0,0.57-0.19,1.06-0.57,1.46s-0.96,0.6-1.73,0.6
		h-12.94c-0.88,0-1.56-0.24-2.06-0.73s-0.74-1.06-0.74-1.71c0-0.42,0.16-0.98,0.47-1.68s0.66-1.25,1.04-1.64
		c1.56-1.62,2.96-3,4.22-4.16c1.25-1.15,2.15-1.91,2.69-2.28c0.96-0.68,1.76-1.36,2.4-2.05s1.12-1.39,1.46-2.11s0.5-1.43,0.5-2.12
		c0-0.75-0.18-1.42-0.54-2.01s-0.84-1.05-1.46-1.38s-1.29-0.49-2.01-0.49c-1.54,0-2.74,0.67-3.62,2.02
		c-0.12,0.18-0.31,0.66-0.59,1.44s-0.59,1.39-0.93,1.81s-0.85,0.63-1.52,0.63c-0.59,0-1.07-0.19-1.46-0.58s-0.58-0.91-0.58-1.58
		c0-0.81,0.18-1.65,0.54-2.53s0.91-1.68,1.63-2.39s1.63-1.29,2.74-1.73s2.4-0.66,3.89-0.66c1.79,0,3.32,0.28,4.59,0.84
		c0.82,0.38,1.54,0.89,2.16,1.55s1.11,1.42,1.45,2.28s0.52,1.75,0.52,2.68c0,1.45-0.36,2.77-1.08,3.96s-1.46,2.12-2.21,2.79
		s-2.01,1.73-3.77,3.17c-1.76,1.44-2.98,2.56-3.63,3.36C247.92,172.76,247.63,173.14,247.34,173.58z"/>
	<path d="M369.56,162.18c1.08,0,2.01-0.32,2.79-0.95s1.17-1.54,1.17-2.72c0-0.9-0.31-1.68-0.93-2.33s-1.46-0.98-2.51-0.98
		c-0.71,0-1.3,0.1-1.77,0.3s-0.83,0.46-1.1,0.79s-0.52,0.75-0.76,1.27s-0.46,1-0.66,1.46c-0.12,0.25-0.33,0.44-0.63,0.58
		s-0.66,0.21-1.05,0.21c-0.47,0-0.9-0.19-1.29-0.57s-0.59-0.89-0.59-1.52c0-0.61,0.18-1.25,0.55-1.92s0.91-1.32,1.62-1.92
		s1.59-1.1,2.65-1.47s2.23-0.55,3.53-0.55c1.14,0,2.17,0.16,3.11,0.47s1.75,0.76,2.44,1.34s1.21,1.27,1.56,2.04s0.53,1.61,0.53,2.5
		c0,1.17-0.25,2.18-0.76,3.01s-1.24,1.66-2.19,2.45c0.91,0.49,1.68,1.05,2.31,1.69s1.1,1.33,1.42,2.1s0.47,1.6,0.47,2.49
		c0,1.07-0.21,2.1-0.64,3.09s-1.06,1.88-1.89,2.66s-1.82,1.39-2.96,1.83s-2.41,0.66-3.79,0.66c-1.41,0-2.67-0.25-3.78-0.76
		s-2.03-1.13-2.75-1.89s-1.27-1.54-1.63-2.35s-0.55-1.48-0.55-2c0-0.68,0.22-1.23,0.66-1.64s0.99-0.62,1.64-0.62
		c0.33,0,0.64,0.1,0.95,0.29s0.5,0.42,0.6,0.69c0.61,1.63,1.26,2.84,1.96,3.63s1.68,1.19,2.94,1.19c0.73,0,1.43-0.18,2.1-0.54
		s1.23-0.89,1.67-1.59s0.66-1.52,0.66-2.44c0-1.37-0.38-2.45-1.12-3.23s-1.79-1.17-3.13-1.17c-0.23,0-0.6,0.02-1.09,0.07
		s-0.81,0.07-0.95,0.07c-0.64,0-1.14-0.16-1.49-0.48s-0.53-0.77-0.53-1.34c0-0.56,0.21-1.02,0.63-1.36s1.05-0.52,1.88-0.52H369.56z"
		/>
</g>
</svg>
