<?xml version="1.0" encoding="utf-8"?>
<!-- Generator: Adobe Illustrator 21.0.0, SVG Export Plug-In . SVG Version: 6.00 Build 0)  -->
<svg version="1.1" id="Layer_1" xmlns="http://www.w3.org/2000/svg" xmlns:xlink="http://www.w3.org/1999/xlink" x="0px" y="0px"
	 viewBox="0 0 500 500" style="enable-background:new 0 0 500 500;" xml:space="preserve">
<g>
	<g>
		<g>
			<path d="M148.3,212.6c-15.5,0-30.9,0-46.4,0c2.5,2.5,5,5,7.5,7.5c0-10.2,0-20.4,0-30.6c-2.5,2.5-5,5-7.5,7.5
				c14.3-0.5,29.4-3.3,41.4-11.7c11.8-8.2,19.1-20.5,21.8-34.5c-2.4,1.8-4.8,3.7-7.2,5.5c12.1,0,24.2,0,36.2,0c-2.5-2.5-5-5-7.5-7.5
				c0,22.7,0,45.4,0,68c0,36.3,0,72.7,0,109c0,8.3,0,16.6,0,24.9c2.5-2.5,5-5,7.5-7.5c-15.3,0-30.5,0-45.8,0c2.5,2.5,5,5,7.5,7.5
				c0-38.2,0-76.4,0-114.5c0-5.4,0-10.7,0-16.1c0-9.7-15-9.7-15,0c0,38.2,0,76.4,0,114.5c0,5.4,0,10.7,0,16.1c0,4.1,3.4,7.5,7.5,7.5
				c15.3,0,30.5,0,45.8,0c4.1,0,7.5-3.4,7.5-7.5c0-22.7,0-45.4,0-68c0-36.3,0-72.7,0-109c0-8.3,0-16.6,0-24.9c0-4.1-3.4-7.5-7.5-7.5
				c-12.1,0-24.2,0-36.2,0c-3.1,0-6.6,2.3-7.2,5.5c-2,10.5-6.7,20.1-15.8,26.2c-9.7,6.5-21.4,8.6-32.9,9c-4.1,0.1-7.5,3.3-7.5,7.5
				c0,10.2,0,20.4,0,30.6c0,4.1,3.4,7.5,7.5,7.5c15.5,0,30.9,0,46.4,0C157.9,227.6,158,212.6,148.3,212.6z"/>
		</g>
	</g>
	<g>
		<g>
			<path d="M233.3,251c0.2-36.7,14-78.2,51.4-92.1c32.6-12.1,71.4-2.1,90.9,27.4c10.8,16.4,15.6,36.1,16.7,55.6
				c1.1,20.5-1.1,42.2-9.8,61.1c-7.2,15.6-18.5,28.8-33.9,36.8c-15.3,7.9-34,10.1-50.8,6.9c-19-3.6-35.7-14.3-46.6-30.3
				C238,297.2,233.4,273.9,233.3,251c0-9.6-15-9.7-15,0c0.2,43.7,18,89.6,61.5,106.2c39,15,85,1,108.3-33.6
				c12.5-18.7,18-41.4,19.1-63.6c1.3-23.7-2.1-48.2-12.3-69.8c-8.5-17.9-22.6-33.4-40.6-42c-18.8-9.1-40.5-11.2-60.9-7.3
				c-19.5,3.8-37.4,14.5-49.9,30c-14.3,17.6-21.6,39.2-24.2,61.6c-0.7,6.2-1,12.4-1.1,18.6C218.3,260.6,233.3,260.6,233.3,251z"/>
			<path d="M360.3,251c-0.1-24.4-3.2-59.3-28.1-71.9c-10.4-5.2-23.5-6-34.4-1.8c-11.3,4.4-19.2,13.7-24,24.6
				c-5.9,13.6-7.8,28.6-8.2,43.4c-0.4,15.2,0.4,31.2,5,45.8c3.6,11.6,9.8,22.7,20.3,29.5c9.8,6.3,22.9,7.6,34,4.6
				C355.9,316.8,360.2,277.7,360.3,251c0-9.7-15-9.7-15,0c0,12.5-0.9,25.1-4.6,37.1c-2.5,7.9-6.7,16-14.1,20.3
				c-6.9,4.1-16.5,4.6-24,1.6c-7.5-3-12.5-9.9-15.6-17.2c-4.7-11-6-23.5-6.4-35.4c-0.4-13.1,0.1-26.5,3.4-39.3
				c2.2-8.5,5.8-17.7,12.8-23.3c6.5-5.2,15.7-6.4,23.6-4.3c23.6,6.3,24.8,41.1,24.9,60.4C345.3,260.6,360.3,260.6,360.3,251z"/>
		</g>
	</g>
</g>
</svg>
