<?xml version="1.0" encoding="utf-8"?>
<!-- Generator: Adobe Illustrator 24.2.2, SVG Export Plug-In . SVG Version: 6.00 Build 0)  -->
<svg version="1.1" id="Layer_1" xmlns="http://www.w3.org/2000/svg" xmlns:xlink="http://www.w3.org/1999/xlink" x="0px" y="0px"
	 viewBox="0 0 500 500" style="enable-background:new 0 0 500 500;" xml:space="preserve">
<style type="text/css">
	.st0{fill:#FFFFFF;}
	.st1{fill:#DEDC00;}
</style>
<g>
	<circle class="st0" cx="250" cy="250.01" r="163.13"/>
	<path d="M407.26,250.01c-0.11,32.89-10.35,64.94-29.47,91.73c-18.19,25.48-44.4,45.41-73.85,56.06
		c-31.02,11.22-65.19,12.52-96.94,3.53c-30.73-8.7-58.18-26.89-78.54-51.45c-42.06-50.77-47.13-125.03-13.04-181.3
		C149.52,112.3,217.2,82.56,281.7,95.93c63.64,13.18,113.47,65.57,123.72,129.71C406.72,233.68,407.24,241.85,407.26,250.01
		c0.02,7.55,11.76,7.57,11.74,0c-0.12-34.81-10.81-69.27-31.08-97.65c-19.89-27.86-47.75-49.24-79.88-61.1
		c-66.24-24.45-143.36-3.49-188.2,50.98c-22.14,26.88-35.57,59.93-38.33,94.66c-2.78,34.91,5.63,70.51,23.79,100.47
		c17.52,28.93,43.83,52.53,74.68,66.46c32.46,14.66,68.89,18.79,103.81,11.78c68.04-13.63,122.62-70.54,133.13-139.17
		c1.34-8.76,2.07-17.57,2.1-26.44C419.02,242.46,407.29,242.44,407.26,250.01z"/>
</g>
<g>
	<circle class="st0" cx="250" cy="250.01" r="135.68"/>
	<path d="M379.81,250.01c-0.21,53.86-34.43,103.65-85.33,122.02c-51.34,18.52-109.61,2.58-144.54-39.26
		c-34.99-41.92-39.22-103.47-10.99-150.03c28.06-46.27,83.72-70.85,136.83-59.98c52.78,10.8,94.04,54.09,102.54,107.23
		C379.38,236.6,379.79,243.31,379.81,250.01c0.03,7.55,11.77,7.57,11.74,0c-0.23-58.99-37.62-112.52-92.97-132.98
		c-55.43-20.48-120.1-2.9-157.59,42.71c-37.78,45.95-43.11,112.43-12.17,163.48c30.8,50.79,91.38,77.17,149.57,65.48
		c56.92-11.44,102.71-59.13,111.41-116.6c1.11-7.32,1.72-14.68,1.75-22.09C391.58,242.46,379.85,242.44,379.81,250.01z"/>
</g>
<g>
	<rect x="245.41" y="136.83" class="st1" width="9.18" height="113.18"/>
	<path d="M254.58,244.14c-3.06,0-6.12,0-9.18,0c1.96,1.96,3.91,3.91,5.87,5.87c0-33,0-66.02,0-99.02c0-4.72,0-9.44,0-14.16
		c-1.96,1.96-3.91,3.91-5.87,5.87c3.06,0,6.12,0,9.18,0c-1.96-1.96-3.91-3.91-5.87-5.87c0,33,0,66.02,0,99.02c0,4.72,0,9.44,0,14.16
		c0,7.55,11.74,7.57,11.74,0c0-33,0-66.02,0-99.02c0-4.72,0-9.44,0-14.16c0-3.17-2.69-5.87-5.87-5.87c-3.06,0-6.12,0-9.18,0
		c-3.17,0-5.87,2.69-5.87,5.87c0,33,0,66.02,0,99.02c0,4.72,0,9.44,0,14.16c0,3.17,2.69,5.87,5.87,5.87c3.06,0,6.12,0,9.18,0
		C262.14,255.88,262.15,244.14,254.58,244.14z"/>
</g>
<g>
	
		<rect x="272.49" y="243.95" transform="matrix(0.7402 -0.6724 0.6724 0.7402 -115.7244 258.8347)" class="st1" width="9.18" height="70.43"/>
	<path d="M300,297.99c-2.26,2.06-4.53,4.12-6.79,6.17c2.77,0,5.53,0,8.3,0c-13.82-15.21-27.64-30.42-41.46-45.64
		c-1.96-2.17-3.93-4.33-5.9-6.49c0,2.77,0,5.53,0,8.3c2.26-2.06,4.53-4.12,6.79-6.17c-2.77,0-5.53,0-8.3,0
		c13.82,15.21,27.64,30.42,41.46,45.64c1.96,2.17,3.93,4.33,5.9,6.49c5.09,5.6,13.37-2.72,8.3-8.3
		c-13.82-15.21-27.64-30.42-41.46-45.64c-1.96-2.17-3.93-4.33-5.9-6.49c-2.21-2.43-6.04-2.05-8.3,0c-2.26,2.06-4.53,4.12-6.79,6.17
		c-2.43,2.21-2.05,6.04,0,8.3c13.82,15.21,27.64,30.42,41.46,45.64c1.96,2.17,3.93,4.33,5.9,6.49c2.21,2.43,6.04,2.05,8.3,0
		c2.26-2.06,4.53-4.12,6.79-6.17C313.9,301.19,305.58,292.92,300,297.99z"/>
</g>
<g>
	
		<ellipse transform="matrix(0.1602 -0.9871 0.9871 0.1602 -36.1845 456.1851)" class="st0" cx="250" cy="249.36" rx="11.73" ry="11.73"/>
	<path d="M255.86,249.36c-0.34,7.54-11.71,7.64-11.71,0C244.14,241.73,255.51,241.81,255.86,249.36c0.34,7.52,12.07,7.57,11.74,0
		c-0.43-9.54-7.72-17.6-17.6-17.6c-9.6,0-17.53,8.04-17.6,17.6c-0.07,9.55,8.1,17.6,17.6,17.6c9.87,0,17.17-8.05,17.6-17.6
		C267.93,241.8,256.2,241.82,255.86,249.36z"/>
</g>
</svg>
